<svg xmlns="http://www.w3.org/2000/svg" xmlns:xlink="http://www.w3.org/1999/xlink" id="visual" viewBox="0 0 960 540" width="960" height="540" version="1.1"><rect x="0" y="0" width="960" height="540" fill="#151515"/><path d="M0 494L11.5 494.2C23 494.3 46 494.7 68.8 491.3C91.7 488 114.3 481 137.2 480.3C160 479.7 183 485.3 205.8 484.7C228.7 484 251.3 477 274.2 475.7C297 474.3 320 478.7 342.8 483.2C365.7 487.7 388.3 492.3 411.2 493.5C434 494.7 457 492.3 480 489.3C503 486.3 526 482.7 548.8 484C571.7 485.3 594.3 491.7 617.2 493.2C640 494.7 663 491.3 685.8 488.2C708.7 485 731.3 482 754.2 483.5C777 485 800 491 822.8 490.5C845.7 490 868.3 483 891.2 483.2C914 483.3 937 490.7 948.5 494.3L960 498L960 541L948.5 541C937 541 914 541 891.2 541C868.3 541 845.7 541 822.8 541C800 541 777 541 754.2 541C731.3 541 708.7 541 685.8 541C663 541 640 541 617.2 541C594.3 541 571.7 541 548.8 541C526 541 503 541 480 541C457 541 434 541 411.2 541C388.3 541 365.7 541 342.8 541C320 541 297 541 274.2 541C251.3 541 228.7 541 205.8 541C183 541 160 541 137.2 541C114.3 541 91.7 541 68.8 541C46 541 23 541 11.5 541L0 541Z" fill="#0582c1" stroke-linecap="round" stroke-linejoin="miter"/></svg>