<svg xmlns="http://www.w3.org/2000/svg" xmlns:xlink="http://www.w3.org/1999/xlink" id="visual" viewBox="0 0 960 540" width="960" height="540" version="1.1"><rect x="0" y="0" width="960" height="540" fill="#0582c1"/><path d="M0 444L17.8 442.3C35.7 440.7 71.3 437.3 106.8 442.5C142.3 447.7 177.7 461.3 213.2 461C248.7 460.7 284.3 446.3 320 446.5C355.7 446.7 391.3 461.3 426.8 461.3C462.3 461.3 497.7 446.7 533.2 441.5C568.7 436.3 604.3 440.7 640 449.5C675.7 458.3 711.3 471.7 746.8 475.8C782.3 480 817.7 475 853.2 469.7C888.7 464.3 924.3 458.7 942.2 455.8L960 453L960 541L942.2 541C924.3 541 888.7 541 853.2 541C817.7 541 782.3 541 746.8 541C711.3 541 675.7 541 640 541C604.3 541 568.7 541 533.2 541C497.7 541 462.3 541 426.8 541C391.3 541 355.7 541 320 541C284.3 541 248.7 541 213.2 541C177.7 541 142.3 541 106.8 541C71.3 541 35.7 541 17.8 541L0 541Z" fill="#1a283d" stroke-linecap="round" stroke-linejoin="miter"/></svg>